# xmcd CD database file
#
# Track frame offsets:
#	150
#	13246
#	24467
#	38950
#	50511
#	62111
#	91386
#	104107
#	114327
#	124475
#	142588
#	154540
#	163320
#	178106
#	190914
#	206710
#	219127
#	233161
#	248318
#	260794
#	274347
#	288648
#
# Disc length: 4075 seconds
#
# Revision: 0
# Processed by: cddbd v1.5PL3 Copyright (c) Steve Scherf et al.
# Submitted via: CDex 1.60beta1
#
DISCID=480fe916
DTITLE=James P. Johnson - 1945-1947
DYEAR=1999
DGENRE=Jazz
TTITLE0=Blues for Jimmy
TTITLE1=Jersey Sweet
TTITLE2=Keep Movin'
TTITLE3=Jungle Drums
TTITLE4=Twilight Rag
TTITLE5=Jazzamine Concerto, Pts. 1 and 2
TTITLE6=Liza
TTITLE7=Aunt Hagar's Blues
TTITLE8=The Dream
TTITLE9=St. Louis Blues
TTITLE10=Sweet Lorraine
TTITLE11=Maple Leaf Rag
TTITLE12=Daintiness Rag
TTITLE13=Mama and Papa Blues
TTITLE14=Ain'tcha Got Music?
TTITLE15=Old Fashioned Love
TTITLE16=I'm Crazy 'Bout My Baby
TTITLE17=Salee Dame
TTITLE18=Mo Pas Lemme Ca
TTITLE19=Les Ognons
TTITLE20=Creole Blues
TTITLE21=Woman Blues
EXTD=YEAR: 1999
EXTT0=
EXTT1=
EXTT2=
EXTT3=
EXTT4=
EXTT5=
EXTT6=
EXTT7=
EXTT8=
EXTT9=
EXTT10=
EXTT11=
EXTT12=
EXTT13=
EXTT14=
EXTT15=
EXTT16=
EXTT17=
EXTT18=
EXTT19=
EXTT20=
EXTT21=
PLAYORDER=
